<?xml version="1.0" encoding="UTF-8" standalone="no"?>
<svg
   xmlns:svg="http://www.w3.org/2000/svg"
   xmlns="http://www.w3.org/2000/svg"
   version="1.0"
   width="568"
   height="371"
   viewBox="-0.801 -0.773 568 371"
   id="svg2714"
   xml:space="preserve">
	<defs
   id="defs2716">
	</defs>
	<g
   id="g2718">
		<path
   d="M 24.619,0 L 541.587,0 C 555.186,0 566.206,11.021 566.206,24.614 L 566.206,344.644 C 566.206,358.242 555.185,369.263 541.587,369.263 L 24.619,369.263 C 11.021,369.263 0,358.242 0,344.644 L 0,24.614 C 0,11.021 11.021,0 24.619,0"
   id="path2720"
   style="fill:#ffffff;fill-rule:evenodd" />
		<path
   d="M 7.686,183.936 L 7.686,343.906 C 7.686,353.281 15.381,361.474 24.761,361.474 L 542.012,361.49 C 551.426,361.49 559.156,352.906 559.156,343.535 L 559.156,183.95"
   id="path2722"
   style="fill:#d9261c;fill-rule:evenodd" />
		<polyline
   fill-rule="evenodd"
   clip-rule="evenodd"
   fill="#FFFFFF"
   points="352.207,202.51 391.567,202.51 391.567,308.628     438.647,308.628 438.647,342.203 352.207,342.203 "
   id="polyline2724"
   style="fill:#ffffff;fill-rule:evenodd" />
		<polyline
   fill-rule="evenodd"
   clip-rule="evenodd"
   fill="#FFFFFF"
   points="412.021,202.51 457.559,202.51 481.479,243.798     504.639,202.51 550.171,202.51 500.005,276.982 500.005,342.203 462.573,342.203 462.573,276.982 "
   id="polyline2726"
   style="fill:#ffffff;fill-rule:evenodd" />
		<polyline
   fill-rule="evenodd"
   clip-rule="evenodd"
   fill="#FFFFFF"
   points="38.477,202.51 72.822,202.51 109.863,255.376     146.143,202.51 180.869,202.51 180.869,342.203 146.143,342.203 146.143,253.056 112.949,297.437 106.777,297.437 72.822,253.056     72.822,342.203 38.477,342.203 "
   id="polyline2728"
   style="fill:#ffffff;fill-rule:evenodd" />
		<path
   d="M 188.809,272.353 C 188.809,231.22 223.536,197.881 266.368,197.881 C 309.21,197.881 343.936,231.22 343.936,272.353 C 343.936,313.486 309.209,346.835 266.368,346.835 C 223.535,346.835 188.809,313.486 188.809,272.353"
   id="path2730"
   style="fill:#ffffff;fill-rule:evenodd" />
		<path
   d="M 229.712,272.353 C 229.712,249.98 246.123,231.835 266.367,231.835 C 286.621,231.835 303.032,249.98 303.032,272.353 C 303.032,294.736 286.621,312.871 266.367,312.871 C 246.123,312.871 229.712,294.736 229.712,272.353"
   id="path2732"
   style="fill:#d9261c;fill-rule:evenodd" />
		<path
   d="M 25.439,6.631 C 15.634,6.631 7.685,14.58 7.685,24.385 L 7.685,183.936 L 559.155,183.951 L 559.155,24.395 C 559.155,14.6 551.074,6.602 541.24,6.602"
   id="path2734"
   style="fill:#00458f;fill-rule:evenodd" />
		<polyline
   fill-rule="evenodd"
   clip-rule="evenodd"
   fill="#FFFFFF"
   points="130.449,25.771 169.81,25.771 169.81,165.459     130.449,165.459 "
   id="polyline2736"
   style="fill:#ffffff;fill-rule:evenodd" />
		<polyline
   fill-rule="evenodd"
   clip-rule="evenodd"
   fill="#FFFFFF"
   points="488.945,25.771 528.691,25.771 528.691,165.459     488.945,165.459 "
   id="polyline2738"
   style="fill:#ffffff;fill-rule:evenodd" />
		<polyline
   fill-rule="evenodd"
   clip-rule="evenodd"
   fill="#FFFFFF"
   points="38.477,25.771 74.106,25.771 74.106,132.275     120.801,132.275 120.801,165.459 38.477,165.459 "
   id="polyline2740"
   style="fill:#ffffff;fill-rule:evenodd" />
		<path
   d="M 346.548,25.771 L 385.523,25.771 L 385.523,113.75 C 385.523,126.963 396.924,137.676 410.997,137.676 C 425.06,137.676 436.466,126.963 436.466,113.75 L 436.466,25.771 L 475.05,25.771 L 475.177,126.484 C 475.177,126.484 475.05,169.707 410.997,169.707 C 346.934,169.707 346.549,126.484 346.549,126.484"
   id="path2742"
   style="fill:#ffffff;fill-rule:evenodd" />
		<path
   d="M 308.984,179.355 L 293.256,162.182 C 282.802,167.226 270.99,170.063 258.495,170.063 C 215.653,170.063 180.927,136.718 180.927,95.585 C 180.927,54.452 215.654,21.103 258.495,21.103 C 301.332,21.103 336.058,54.453 336.058,95.585 C 336.058,114.213 328.934,131.244 317.162,144.306 L 337.157,165.458"
   id="path2744"
   style="fill:#ffffff;fill-rule:evenodd" />
		<path
   d="M 278.311,103.721 L 290.079,115.684 C 293.155,109.751 295.157,102.911 295.157,95.586 C 295.157,73.203 278.741,55.068 258.497,55.068 C 238.248,55.068 221.837,73.203 221.837,95.586 C 221.837,117.964 238.248,136.104 258.497,136.104 C 262.022,136.104 265.343,135.459 268.531,134.395 L 252.647,116.841"
   id="path2746"
   style="fill:#00458f;fill-rule:evenodd" />
	</g>
</svg>